<svg fill="#FF00FF" viewBox="0 0 512 512" xmlns="http://www.w3.org/2000/svg">
    <g id="_1">
        <path d="M376.48,446.25a15,15,0,0,1-11.29-5.12l-48.48-55.39A238.09,238.09,0,0,1,257,393.25c-53.67,0-104.25-17.43-142.42-49.07-39-32.32-60.45-75.53-60.45-121.68s21.47-89.36,60.45-121.68C152.75,69.18,203.33,51.75,257,51.75s104.24,17.43,142.41,49.07c39,32.32,60.45,75.53,60.45,121.68,0,49.27-24.82,95.49-68.38,127.92v80.83a15,15,0,0,1-15,15Zm-54.72-92.51a15,15,0,0,1,11.29,5.12l28.43,32.48V342.69A15,15,0,0,1,368,330.31c39.31-26.88,61.85-66.18,61.85-107.81,0-77.61-77.55-140.75-172.86-140.75S84.13,144.89,84.13,222.5,161.68,363.25,257,363.25a206.92,206.92,0,0,0,60.39-8.86A15.32,15.32,0,0,1,321.76,353.74Z"/>
        <path d="M319.77,179.57H194.22a15,15,0,1,1,0-30H319.77a15,15,0,0,1,0,30Z"/>
        <path d="M319.77,236.17H194.22a15,15,0,0,1,0-30H319.77a15,15,0,0,1,0,30Z"/>
        <path d="M319.77,292.77H194.22a15,15,0,0,1,0-30H319.77a15,15,0,0,1,0,30Z"/>
    </g>
</svg>
